<svg width="77" height="62" viewBox="0 0 77 62" fill="none" xmlns="http://www.w3.org/2000/svg">
<path d="M0.244424 61.659V41.059C0.244424 33.459 1.57776 26.5256 4.24442 20.259C6.91109 13.859 11.5778 7.32564 18.2444 0.658975L30.0444 10.259C25.3778 14.9256 22.0444 19.3256 20.0444 23.459C18.0444 27.5923 17.0444 32.059 17.0444 36.859L10.0444 29.459H32.6444V61.659H0.244424ZM43.6444 61.659V41.059C43.6444 33.459 44.9778 26.5256 47.6444 20.259C50.3111 13.859 54.9778 7.32564 61.6444 0.658975L73.4444 10.259C68.7778 14.9256 65.4444 19.3256 63.4444 23.459C61.4444 27.5923 60.4444 32.059 60.4444 36.859L53.4444 29.459H76.0444V61.659H43.6444Z" fill="#7777EF" fill-opacity="0.2"/>
</svg>
